# xmcd
#
# Track frame offsets: 
#        150
#        17746
#        49551
#        70783
#        98718
#        130069
#        166794
#        184229
#
# Disc length: 2795 seconds
#
# Revision: 2
# Processed by: cddbd v1.5.2PL0 Copyright (c) Steve Scherf et al.
# Submitted via: ExactAudioCopy v0.95b4
#
DISCID=5d0ae908
DTITLE=Eric Clapton - 1983-04-20 - No One Else - CD1
DYEAR=1983
DGENRE=Blues
TTITLE0=Tulsa Time
TTITLE1=I Shot The Sheriff
TTITLE2=Lay Down Sally
TTITLE3=Worried Life Blues
TTITLE4=Let It Rain
TTITLE5=Double Trouble
TTITLE6=Sweet Little Lisa
TTITLE7=After Midnight
EXTD=
EXTT0=
EXTT1=
EXTT2=
EXTT3=
EXTT4=
EXTT5=
EXTT6=
EXTT7=
PLAYORDER=
